# xmcd
#
# Track frame offsets:
#	150
#	16332
#	32875
#	47552
#	60300
#	76115
#	91172
#	103627
#	119430
#	133592
#	151472
#	166767
#	183357
#	203690
#	224575
#	239367
#	254425
#	265587
#	279437
#	295195
#
# Disc length: 4140 seconds
#
# Revision: 0
# Processed by: cddbd v1.5.2PL0 Copyright (c) Steve Scherf et al.
# Submitted via: EasyCDDAExtractor 15.3.0.1
#
DISCID=0e102a14
DTITLE=Randy Travis - Anthology [CD3]
DYEAR=2006
DGENRE=
TTITLE0=Point Of Light
TTITLE1=Good Intentions
TTITLE2=Somewhere In My Broken Heart
TTITLE3=Cowboy Boogie
TTITLE4=Wind In The Wire
TTITLE5=Memories of Old Santa Fe
TTITLE6=The Storms of Life
TTITLE7=King of the Road
TTITLE8=The Hole
TTITLE9=America Will Always Stand
TTITLE10=Three Wooden Crosses
TTITLE11=Farther Along
TTITLE12=How Great Thou Art
TTITLE13=Just A Closer Walk With You
TTITLE14=Shall We Gather At the River
TTITLE15=Softly and Tenderly
TTITLE16=Sweet By and By
TTITLE17=Rise and Shine
TTITLE18=Drive Another Nail
TTITLE19=Amazing Grace
EXTD=
EXTT0=
EXTT1=
EXTT2=
EXTT3=
EXTT4=
EXTT5=
EXTT6=
EXTT7=
EXTT8=
EXTT9=
EXTT10=
EXTT11=
EXTT12=
EXTT13=
EXTT14=
EXTT15=
EXTT16=
EXTT17=
EXTT18=
EXTT19=
PLAYORDER=
